<?xml version="1.0" encoding="UTF-8"?>
<svg xmlns="http://www.w3.org/2000/svg" xmlns:xlink="http://www.w3.org/1999/xlink" viewBox="0 0 1920 1080">
  <defs>
    <style>
      .cls-1 {
        fill: url(#radial-gradient);
      }

      .cls-1, .cls-2 {
        mix-blend-mode: multiply;
      }

      .cls-3 {
        fill: url(#linear-gradient);
      }

      .cls-4 {
        isolation: isolate;
      }

      .cls-5 {
        fill: #fff;
      }

      .cls-6 {
        letter-spacing: -.02em;
      }

      .cls-7 {
        letter-spacing: -.01em;
      }

      .cls-8 {
        letter-spacing: 0em;
      }

      .cls-9 {
        font-family: Montserrat-Light, Montserrat;
        font-size: 70.8px;
        font-weight: 300;
      }
    </style>
    <linearGradient id="linear-gradient" x1="1001.89" y1="598.65" x2="1001.89" y2="392.24" gradientUnits="userSpaceOnUse">
      <stop offset="0" stop-color="#fff"/>
      <stop offset=".36" stop-color="#fcfcfc"/>
      <stop offset=".51" stop-color="#f5f5f5"/>
      <stop offset=".62" stop-color="#e9e9e9"/>
      <stop offset=".71" stop-color="#d8d8d8"/>
      <stop offset=".79" stop-color="#c1c1c1"/>
      <stop offset=".86" stop-color="#a5a5a5"/>
      <stop offset=".93" stop-color="#838383"/>
      <stop offset=".98" stop-color="#5d5d5d"/>
      <stop offset="1" stop-color="#525252"/>
    </linearGradient>
    <radialGradient id="radial-gradient" cx="663.89" cy="577.66" fx="663.89" fy="577.66" r="210.98" gradientUnits="userSpaceOnUse">
      <stop offset=".31" stop-color="#fff"/>
      <stop offset=".59" stop-color="#fdfdfd"/>
      <stop offset=".69" stop-color="#f6f6f6"/>
      <stop offset=".76" stop-color="#eaeaea"/>
      <stop offset=".82" stop-color="#d9d9d9"/>
      <stop offset=".87" stop-color="#c3c3c3"/>
      <stop offset=".91" stop-color="#a8a8a8"/>
      <stop offset=".95" stop-color="#888"/>
      <stop offset=".99" stop-color="#636363"/>
      <stop offset="1" stop-color="#525252"/>
    </radialGradient>
  </defs>
  <g class="cls-4">
    <g id="Layer_1" data-name="Layer 1">
      <g>
        <g class="cls-2">
          <path class="cls-3" d="M1396.05,433.43h-788.31c-77.85,0-140.95,63.11-140.95,140.95h0c0,77.85,63.11,140.95,140.95,140.95h788.31c77.85,0,140.95-63.11,140.95-140.95h0c0-77.85-63.11-140.95-140.95-140.95Z"/>
        </g>
        <path class="cls-1" d="M607.74,433.43c-77.85,0-140.95,63.11-140.95,140.95s63.11,140.95,140.95,140.95,140.95-63.11,140.95-140.95-63.11-140.95-140.95-140.95Z"/>
        <path class="cls-5" d="M1536.97,574.39c0,77.85-63.04,140.96-140.89,140.96h-788.37c-32.67,0-62.74-11.14-86.62-29.84,23.51,17.55,52.74,28.01,84.33,28.01h788.3c77.92,0,140.96-63.12,140.96-140.96,0-38.92-15.72-74.18-41.29-99.67-3.21-3.21-6.49-6.26-10-9.08,4.35,3.36,8.47,7.02,12.36,10.91,25.49,25.49,41.21,60.75,41.21,99.67Z"/>
        <text class="cls-9" transform="translate(722.89 610.04)"><tspan class="cls-6" x="0" y="0">V</tspan><tspan x="47.16" y="0">i</tspan><tspan class="cls-8" x="65.64" y="0">e</tspan><tspan x="107.2" y="0">w Mo</tspan><tspan class="cls-7" x="298.01" y="0">r</tspan><tspan x="324.92" y="0">e</tspan></text>
        <polygon points="1340.7 627.09 1336.37 622.76 1363 596.13 1336.37 569.51 1340.7 565.18 1371.66 596.13 1340.7 627.09"/>
      </g>
    </g>
  </g>
</svg>