<svg id="Layer_1" enable-background="new 0 0 512 512" viewBox="0 0 512 512" xmlns="http://www.w3.org/2000/svg"><path d="m259 314.48c0-6.6 10.01-6.6 10.01 0v79.43c0 1.53-.71 2.92-1.81 3.83-.31 1.64-1.47 3.09-3.17 3.69-2.21.82-.43 7.6-.43 12.08v53.46c0 4.25.06 8.02.96 10.12.51 1.16 1.76 1.9 4.48 1.9h16.44c7.23 0 13.61-5.39 13.61-12.47 0-30.1.31-49.29.74-57.83.26-5.24 1.56-8.31 3.71-9.27v-41.95c0-20.38 25.31-28.91 46.4-30.87-16.24-7.74-22.48-27.21-12.64-42.29-10.49-2.44-22.14-3.69-33.73-3.69v.03c-15.85 0-31.46 2.27-43.77 6.89-12.19 4.56-23.24 12.13-23.24 24.04v67.55c0 5.47 12.25 11.93 19.28 11.93 1.13 0 2.27.4 3.17 1.16v-77.74zm-81.15 108c-.77-.88-1.22-2.04-1.22-3.32v-62.28c0-6.6 10.01-6.6 10.01 0v57.23c3.15-.06 7.71-.94 11.03-2.64 1.5-.77 2.61-1.53 2.61-1.98v-51c0-10.2-12.84-17.12-29.14-20.38-13.46-2.72-29.14-2.81-42.58-.11-15.31 3.06-27.16 9.55-27.16 19.45v49.63c0 2.92 8.02 7.46 12.87 7.46.94 0 1.9.26 2.75.82.06-.74-.25-.6 1.08-.45v-58.03c0-6.6 10.01-6.6 10.01 0v62.28c0 3.23-3 5.58-6.09 4.9-1.59 1.16-1.5-.37-1.05 3.74.17 1.45.34 2.98.34 4.54v39.29c0 3 .03 5.61.6 6.92.14.37.71.6 2.07.6h12.08c4.59 0 8.67-3.34 8.67-7.85 0-21.03.06-40.96 1.02-46.91.57-2.49 2.92-4.48 5.95-3.83 2.55.57 4.05 3.37 4.31 8.33.31 6.52.57 20.98.57 42.92 0 4.48 4.08 7.85 8.67 7.85h12.08c1.45 0 2.1-.28 2.32-.74.62-1.33.68-3.86.68-6.77v-39.29c0-1.47.71-7.46.4-7.57-1.32-.52-2.34-1.51-2.88-2.81zm-25.94-152.34c6.32 0 12.22 1.79 17.18 4.85 9.27-2.38 19.59-3.77 30.1-4.2-30.33-7.57-41.05-43.77-18.4-65 15.99-15 41.7-15 57.69 0 23.07 21.66 11.42 58.62-19.76 65.31 13.15.96 25.94 3.43 36.74 7.4.28-.11.57-.2.85-.31 11.62-4.37 25.74-6.83 40.25-7.43-30.3-7.6-40.96-43.74-18.37-64.97 15.99-15 41.73-15 57.71 0 23.07 21.66 11.42 58.62-19.79 65.31 10.2.74 20.15 2.38 29.14 4.93 16.44-11.62 40.17-5.39 47.91 12.76 44.56-58.73 83.37-145.02 26.42-206.28-43.25-46.51-112.7-46-155.7.4h-.03c-2.07 2.21-5.7 2.07-7.6-.34-19.81-25.71-48.47-41.24-79.63-42.83-23.98-1.19-48.33 5.98-68.88 21.85-4.85 3.74-9.47 7.97-13.86 12.67-25.23 27.13-31.75 59.84-26.36 93.8 6.29 39.74 28.74 81.21 56.78 117.64 5.5-9.55 16.04-15.56 27.61-15.56zm25.99 13.1c11.06 15.39 4.51 36.2-12.9 43.8 21.51 2.69 45.27 12.1 45.27 31.46v41.27c1.81 1.28 2.89 4.31 3.12 9.1.43 8.79.77 28.4.77 58.28 0 7.11 6.41 12.5 13.63 12.5h16.41c2.81 0 4.2-.79 4.79-2.04 1.02-2.13 1.13-5.81 1.13-10.01v-53.46c0-4.31 1.67-11.06-.65-11.96-1.28-.48-2.3-1.47-2.81-2.75-9.13-2.98-20.13-10.4-20.13-20.32v-67.55c0-11.2 6.35-20.13 16.13-26.59-19.97-5.19-44.55-5.73-64.76-1.73zm-10.74 2.8c-13.38-12.56-36.68-3.8-36.68 13.92 0 17.66 23.3 26.48 36.68 13.89 8.22-7.71 8.22-20.1 0-27.81zm34.87 134.37c-3.37 1.7-7.57 2.83-11.25 3.37.26 3.03-.45 5.98-.45 9.07v39.29c0 2.38-.06 4.62-.4 6.72 6.41-.82 11.74-5.9 11.74-12.36-.01-20.3.16-35.63.36-46.09zm-84.9-4.96.23-.11c-.14-.17-.26-.34-.31-.43l-.03.45zm272.86 7.03c-.77-.88-1.25-2.04-1.25-3.32v-62.28c0-6.6 10.01-6.6 10.01 0v57.23c3.17-.06 7.71-.94 11.03-2.64 1.53-.77 2.64-1.53 2.64-1.98v-51c0-10.2-12.87-17.12-29.14-20.38-13.52-2.72-29.2-2.81-42.58-.11-15.31 3.06-27.16 9.55-27.16 19.45v49.63c0 2.92 7.99 7.46 12.84 7.46.96 0 1.93.26 2.75.82.06-.74-.23-.6 1.11-.45v-58.03c0-6.6 9.98-6.6 9.98 0v62.28c0 3.23-2.98 5.58-6.09 4.9-1.56 1.16-1.5-.37-1.02 3.74.17 1.45.34 2.98.34 4.54v39.29c0 3 0 5.61.57 6.92.17.37.74.6 2.1.6h12.08c4.56 0 8.67-3.34 8.67-7.85 0-21.03.06-40.96 1.02-46.91.54-2.49 2.92-4.48 5.95-3.83 2.55.57 4.05 3.37 4.28 8.33.34 6.52.6 20.98.6 42.92 0 4.48 4.08 7.85 8.67 7.85h12.08c1.45 0 2.1-.28 2.3-.74.65-1.33.71-3.86.71-6.77v-39.29c0-1.47.68-7.46.37-7.57-1.3-.52-2.35-1.51-2.86-2.81zm-10.68-136.44c-13.38-12.56-36.71-3.8-36.71 13.92 0 11.31 9.98 19.79 21.43 19.79 18.88 0 28.63-21.18 15.28-33.71zm-55.34 193.55c-.51-2.44-.54-5.1-.54-7.97v-39.29c0-2.58-.62-5.41-.62-8.16-3.91-.71-8.25-2.49-11.65-4.9.25 10.69.43 26.7.43 47.88 0 6.72 5.69 11.88 12.38 12.44zm5.28-64.14.25-.11c-.14-.17-.28-.34-.31-.43l-.06.45zm-.17-202.4c-12.1-11.37-31.92-11.37-44.05 0-11.93 11.23-11.93 29.28 0 40.48 12.13 11.37 31.95 11.37 44.05 0 11.93-11.2 11.93-29.25 0-40.48zm-97.43 0c-12.1-11.37-31.92-11.37-44.02 0-11.93 11.23-11.93 29.28 0 40.48 12.1 11.37 31.92 11.37 44.02 0 11.93-11.2 11.93-29.25 0-40.48zm121.97-145.81c-2.72-.34-4.68-2.83-4.34-5.56.31-2.75 2.81-4.71 5.56-4.37 25.2 3.12 44.02 15.51 52.16 39.4 2.13 6.21-7.31 9.44-9.44 3.2-6.92-20.26-22.48-29.98-43.94-32.67z"/></svg>