<svg version="1.1" xmlns="http://www.w3.org/2000/svg" style="display: block;" viewBox="0 0 2048 2048" width="512" height="512">
<path transform="translate(0,0)" fill="rgb(0,0,0)" d="M 1002.03 0 L 1042.9 0 C 1056.81 6.92937 1062.52 7.03563 1076.64 17.2762 C 1088.85 26.1343 1099.94 36.4943 1111.17 46.5375 C 1132.73 65.8029 1153.71 85.6448 1175.42 104.737 C 1186.72 114.68 1197.06 127.662 1211.47 133.137 C 1220.64 136.621 1230.99 137.009 1240.66 136.125 C 1257.08 134.624 1273.32 129.403 1289.18 125.058 L 1352.25 107.458 C 1377.84 100.278 1406.65 90.4994 1433.12 99.0478 C 1446.89 103.57 1458.87 112.339 1467.34 124.094 C 1475.93 136.032 1480.04 151.71 1484.98 165.424 C 1494.5 191.122 1503.67 216.954 1512.46 242.912 C 1518.33 260.232 1523.28 280.919 1531.94 296.968 C 1537 306.285 1544.81 313.814 1554.31 318.527 C 1572.05 327.515 1595.43 330.355 1614.81 334.886 C 1645.51 342.067 1677.25 349.29 1707.22 358.934 C 1721.09 363.397 1733.38 371.048 1742.45 382.59 C 1750.16 392.466 1754.84 404.364 1755.94 416.846 C 1758.14 443.853 1736.2 520.031 1729.19 550.766 C 1726.48 562.637 1721.88 578.609 1724.53 590.617 C 1726.18 598.101 1730.52 605.611 1735.11 611.689 C 1742.88 621.98 1753.17 631.269 1762.27 640.388 C 1781.82 659.817 1801.5 679.116 1821.31 698.284 C 1833.36 710.128 1847.37 722.035 1855.04 737.348 C 1876.88 780.929 1837.53 814.253 1810.02 841.909 C 1792 860.022 1773.37 877.824 1756.18 896.717 C 1747.58 906.162 1738.04 915.954 1733.36 928.053 C 1730.6 935.193 1730.16 942.593 1731.17 950.134 C 1732.86 962.649 1738.38 975.144 1742.41 987.053 L 1764.2 1053.22 C 1769.51 1069.54 1776.58 1086.78 1778.3 1103.89 C 1779.37 1114.54 1778.19 1125.3 1774.84 1135.47 C 1762.11 1173.17 1719.31 1183.04 1685.87 1194.23 L 1619.06 1216.33 C 1602.75 1221.57 1585.14 1225.89 1569.85 1233.62 C 1558.21 1239.5 1548.07 1248.12 1541.32 1259.36 C 1532.87 1273.43 1530.05 1291.49 1526.2 1307.27 C 1519.13 1336.16 1513.43 1366.83 1503.91 1394.99 C 1498.94 1409.53 1490.86 1422.82 1480.24 1433.93 C 1440.47 1475.12 1401.28 1462.84 1352.19 1450.04 C 1328.71 1443.91 1305.18 1437.97 1281.6 1432.25 C 1264.22 1427.95 1245.29 1422.71 1227.51 1428.06 C 1221.11 1429.99 1215.26 1433.67 1210.19 1437.97 C 1199.89 1446.72 1191.17 1457.62 1182.16 1467.69 C 1172.11 1478.9 1161.66 1489.75 1151.66 1501 C 1139.48 1514.7 1127.72 1529.01 1114.16 1541.39 C 1104.44 1550.26 1093.37 1558.22 1081.51 1563.96 C 1068.49 1570.2 1054.5 1574.17 1040.14 1575.71 C 1038.28 1575.9 1036.41 1576.05 1034.54 1576.16 C 975.028 1579.56 941.288 1552.02 903.16 1510.64 C 886.818 1492.9 871.127 1474.72 855.245 1456.59 C 845.896 1445.91 834.908 1431.72 820.577 1428.1 C 802.392 1423.51 781.367 1430.51 763.799 1435.15 L 704.735 1450.39 C 671.512 1458.83 636.326 1470.44 602.431 1458.33 C 591.739 1454.51 581.585 1447.54 572.891 1440.35 C 545.871 1418.02 539.104 1391.8 532.425 1358.83 L 522.26 1308.47 C 519.684 1296.09 517.34 1283.04 511.773 1271.6 C 505.61 1258.94 495.41 1247.21 483.55 1239.59 C 466.41 1228.59 444.585 1223.63 425.464 1217.01 L 325.864 1182.72 C 287.255 1169.31 258.184 1147.03 266.141 1101.7 C 268.946 1085.72 275.364 1069.88 280.426 1054.48 C 289.048 1028.26 297.021 1001.82 305.461 975.532 C 309.961 961.515 317.555 943.313 312.91 928.611 C 311.175 923.119 308.02 918.071 304.46 913.573 C 294.556 901.057 282.101 889.799 270.946 878.329 C 255.868 862.826 241.226 846.922 226.091 831.466 C 213.766 818.879 198.332 805.913 190.69 789.75 C 169.859 745.69 210.265 710.698 237.949 682.472 C 254.646 665.36 271.506 648.408 288.527 631.618 C 298.157 622.134 310.741 611.917 316.265 599.385 C 318.587 594.118 318.917 588.433 318.506 582.759 C 317.419 567.75 312.998 552.474 309.93 537.721 C 305.207 515.016 300.971 492.208 296.466 469.459 C 291.803 445.915 283.101 420.082 291.826 396.501 C 296.552 383.726 304.581 373.573 316.187 366.417 C 331.278 357.114 349.914 354.021 366.915 349.809 L 446.181 329.668 C 462.663 325.458 481.027 322.387 496.438 315.258 C 506.491 310.607 513.521 303.519 518.936 293.985 C 527.651 278.644 531.001 259.962 535.61 243.038 L 551.824 185.537 C 555.747 171.132 559.043 156.059 564.174 142.039 C 575.7 110.549 604.786 91.789 638.342 94.8997 C 654.513 96.3988 671.121 101.945 686.82 106.067 L 745.677 121.839 C 770.398 128.511 796.884 138.325 822.749 136.282 C 831.002 135.63 837.913 132.907 844.804 128.415 C 856.613 120.718 866.679 109.467 877.203 100.067 L 935.667 48.8417 C 948.162 37.7291 960.617 25.0475 974.06 15.1672 C 982.636 8.86405 992.412 4.44271 1002.03 0 z M 1042.28 1329.85 C 1160.4 1326.83 1274.77 1287.78 1370.07 1217.94 C 1395.12 1199.77 1419.85 1179.62 1441.04 1157.01 C 1453.61 1143.6 1466.54 1129.93 1477.94 1115.51 C 1555.7 1017.22 1598.2 896.03 1593.89 770.395 C 1589.02 628.502 1523.9 498.548 1420.8 402.132 C 1312.92 301.227 1156.75 243.543 1009.25 249.147 C 1007.31 249.221 1005.38 249.313 1003.44 249.423 C 967.14 251.739 931.233 255.143 895.528 262.477 C 802.487 282.404 715.659 324.574 642.471 385.378 C 616.957 406.937 593.849 431.103 571.837 456.185 C 561.175 468.334 551.719 481.951 542.558 495.252 C 480.025 586.045 441.765 704.753 449.343 815.738 C 458.892 959.344 524.942 1093.32 633.037 1188.34 C 747.484 1287.81 891.934 1332.13 1042.28 1329.85 z"/>
<path transform="translate(0,0)" fill="rgb(0,0,0)" d="M 996.932 348.411 C 999.217 348.286 1001.5 348.19 1003.79 348.126 C 1131.49 344.655 1260.17 387.895 1353.8 476.359 C 1438.56 556.431 1488.81 663.398 1492.07 780.348 C 1494.78 893.821 1452.34 1003.73 1374.08 1085.94 C 1288.02 1176.14 1169.87 1228.79 1045.25 1232.48 C 914.405 1237.75 795.162 1195.49 696.876 1109.29 C 615.238 1037.69 559.786 930.018 552.519 821.485 C 543.859 692.138 582.754 594.15 667.258 497.839 C 681.852 481.206 698.128 467.325 715.35 453.554 C 796.306 388.826 894.067 355.125 996.932 348.411 z M 932.847 669.634 C 898.174 634.153 841.253 611.84 791.887 611.15 C 782.968 611.025 771.031 610.125 764.212 616.933 C 754.658 626.471 755.445 643.559 755.778 656.064 C 757.352 715.154 779.278 770.545 822.695 811.32 C 876.915 862.242 955.779 884.778 1029.12 882.54 C 1031.56 882.464 1033.99 882.318 1036.42 882.102 C 1110.67 876.205 1192.24 854.158 1242.66 795.389 C 1277.72 754.054 1294.96 700.505 1290.6 646.48 C 1289.92 637.807 1289.17 620.532 1282.01 614.585 C 1274.05 607.98 1238.17 611.947 1227.67 613.925 C 1185.16 622.038 1145.61 641.429 1113.17 670.068 C 1120.75 624.628 1100.95 562.056 1074.32 524.82 C 1063.6 509.818 1047.67 490.911 1028.3 488.08 C 1023.15 487.327 1017.37 487.625 1012.22 488.165 C 975.366 509.196 953.266 552.863 942.455 592.376 C 935.839 616.556 930.948 644.555 932.847 669.634 z M 886.031 924.29 C 887.902 948.566 886.215 973.9 886.349 998.307 C 886.412 1009.81 886.029 1021.38 888.476 1032.68 C 893.879 1043.99 901.526 1055.82 914.232 1059.74 C 934.274 1065.91 1027.37 1062.55 1056.43 1062.4 C 1078.12 1062.3 1101.02 1063.89 1122.57 1061.62 C 1128.79 1060.97 1134.34 1059.13 1139.8 1056.06 C 1150.46 1050.06 1157.48 1041.19 1160.52 1029.31 C 1162.54 1021.38 1163.34 932.11 1161.36 925.015 L 1160.21 924.223 C 1144.65 931.648 1128.98 938.667 1112.33 943.337 C 1054.6 959.527 975.167 957.729 918.876 937.854 C 907.621 933.88 897.021 928.842 886.031 924.29 z"/>
<path transform="translate(0,0)" fill="rgb(0,0,0)" d="M 339.102 1273.01 C 357.863 1279.03 414.051 1297.5 429.047 1306.79 C 432.946 1309.21 436.024 1312.01 438.101 1316.15 C 445.286 1330.46 449.003 1358.59 452.808 1375.24 C 457.065 1393.87 461.937 1412.83 469.487 1430.43 C 489.777 1477.51 528.553 1514.17 576.704 1531.79 C 625.213 1549.48 662.752 1543.08 711.128 1530.68 C 737.313 1523.98 763.758 1516.72 790.219 1511.28 C 806.187 1523.59 826.245 1547.43 840.745 1563.07 C 851.198 1574.35 863.007 1585.61 872.211 1597.89 C 862.449 1619.11 843.813 1643.7 830.662 1663.74 L 746.513 1791.47 C 710.386 1846.49 673.947 1901.31 637.199 1955.92 C 620.046 1981.65 604.535 2009.45 585.472 2033.82 C 579.536 2041.41 572.713 2043.21 564.98 2048 L 551.945 2048 C 527.158 2035.33 524.423 2026.5 516.287 2001.35 C 484.024 1904.46 450.792 1807.9 416.597 1711.68 C 391.681 1717.56 366.339 1721.33 341.168 1725.94 C 288.166 1735.63 235.11 1745.03 182.002 1754.12 L 88.3144 1771.06 C 73.8911 1773.66 58.8739 1777.37 44.2963 1778.71 C 36.4761 1779.44 28.6927 1777.96 21.9734 1773.84 C 12.646 1768.11 5.92833 1759.97 3.55432 1749.14 C 0.326695 1734.42 3.91834 1723.29 12.0236 1711.16 C 21.5394 1696.9 32.9388 1683.7 42.9771 1669.76 C 87.762 1607.6 134.812 1547.2 180.319 1485.59 L 282.28 1348.84 C 299.79 1325.15 319.713 1294.03 339.102 1273.01 z"/>
<path transform="translate(0,0)" fill="rgb(0,0,0)" d="M 1255.57 1511.43 C 1310.27 1519.44 1364.47 1545.62 1420.24 1542.62 C 1496.17 1538.54 1560.82 1484.93 1584.41 1413.32 C 1589.81 1396.91 1607.83 1312.19 1613.95 1306.02 C 1620.34 1299.58 1670.88 1280.63 1681.2 1280.58 C 1690.68 1285.3 1753.79 1366.06 1767.34 1382.11 L 1943.78 1590.54 C 1974.33 1626.19 2007.5 1660.22 2036.22 1697.39 C 2041.61 1704.37 2044.92 1712.02 2048 1720.21 L 2048 1724.47 C 2044.16 1736.58 2040.12 1748.19 2028.1 1754.55 C 2020.49 1758.57 2014.39 1758.24 2006.11 1757.62 C 1992.68 1756.62 1979.19 1754.29 1965.85 1752.45 L 1892.52 1742.1 L 1735.2 1720.46 L 1658.18 1710.06 C 1646.14 1708.46 1633.13 1707.85 1621.44 1704.76 C 1618.92 1726.93 1613.52 1749.38 1609.09 1771.25 C 1599.57 1817.35 1589.61 1863.36 1579.21 1909.28 C 1571.69 1943.52 1566.78 1983.38 1557.03 2016.28 C 1554.71 2024.12 1551.67 2032.06 1545.24 2037.46 C 1539.53 2042.25 1533.12 2044.28 1526.85 2048 L 1512.97 2048 C 1504.03 2042.15 1495.25 2040.82 1487.21 2032.65 C 1475.04 2020.27 1464.74 2004.88 1453.59 1991.47 C 1418.89 1949.73 1385.35 1907.04 1350.8 1865.19 L 1210.05 1694.97 C 1195.19 1676.83 1180.21 1659.01 1165.84 1640.45 C 1160.75 1633.87 1154.59 1627.09 1150.56 1619.83 C 1150.72 1619.15 1150.64 1618.37 1151.02 1617.79 C 1152.6 1615.35 1159.11 1611.82 1161.67 1609.76 C 1169.37 1603.57 1176.51 1596.51 1183.45 1589.47 C 1208.08 1564.48 1228.27 1533.66 1255.57 1511.43 z"/>
</svg>