<svg id="Layer_1" enable-background="new 0 0 450 450" viewBox="0 0 450 450" xmlns="http://www.w3.org/2000/svg"><g><g><g id="XMLID_1_"><path d="m347.49 148.74v36.67c-9.76-1-18.69-4.88-25.91-10.77z"/><path d="m357.49 148.75 25.9 25.91c-7.22 5.89-16.14 9.76-25.9 10.76z"/><path d="m364.55 141.69h36.66c-1 9.77-4.87 18.69-10.77 25.91z"/><path d="m401.22 131.69h-36.66l25.91-25.91c5.88 7.22 9.75 16.14 10.75 25.91z"/><path d="m383.38 98.72-25.9 25.9v-36.66c9.76 1 18.68 4.86 25.9 10.76z"/><path d="m347.49 87.96v36.67l-25.91-25.9c7.22-5.9 16.15-9.77 25.91-10.77z"/><path d="m340.41 131.69h-36.65c1-9.77 4.87-18.68 10.75-25.9z"/><path d="m340.41 141.69-25.9 25.9c-5.89-7.22-9.76-16.13-10.76-25.9z"/><path d="m272.87 175.96h-36.65l25.9-25.91c5.88 7.22 9.76 16.15 10.75 25.91z"/><path d="m255.04 142.99-25.91 25.91v-36.66c9.77.99 18.7 4.86 25.91 10.75z"/><path d="m219.14 132.24v36.66l-25.91-25.92c7.22-5.87 16.15-9.75 25.91-10.74z"/><path d="m186.17 150.05 25.9 25.91h-36.64c.99-9.77 4.86-18.69 10.74-25.91z"/><circle cx="254.52" cy="73.36" r="12.9"/><path d="m176.26 99.79c-8.69-1.6-15.91-5.22-21.28-10.74-8.24-8.47-11.85-21.06-10.45-36.4.46-5.01 2.04-8.58 4.71-10.62 2.45-1.87 5.48-2.23 7.43-2.23 1 0 1.72.09 1.92.13.02 0 .04 0 .05.01 2.4.61 4.01 1.69 4.9 3.32.69 1.25 1.03 2.94 1.03 4.94 0 2.61-.59 5.76-1.74 9.11-6.36 18.5 1.57 31.89 13.43 42.48z"/><circle cx="61.42" cy="97.32" r="12.9"/><path d="m116.22 191.01c-8.69-1.6-15.91-5.22-21.28-10.74-8.23-8.47-11.85-21.06-10.45-36.4.46-5.01 2.04-8.58 4.71-10.62 2.45-1.87 5.48-2.23 7.43-2.23.74 0 1.33.05 1.67.09h.01c.15.05.31.08.46.1 2.31.61 3.86 1.68 4.73 3.27.69 1.25 1.03 2.94 1.03 4.94 0 2.61-.59 5.76-1.74 9.11-6.36 18.49 1.57 31.88 13.43 42.48z"/><ellipse cx="224.99" cy="304.66" rx="45.22" ry="16.51"/><path d="m78.18 248.81h293.62c-2.54 10.52-5.84 21.01-9.47 30.06-16.37 40.83-43.4 68.29-80.38 81.63h-113.94c-36.96-13.34-64-40.8-80.37-81.63-3.63-9.06-6.92-19.55-9.46-30.06zm202.03 55.85c0-15.11-23.75-26.51-55.22-26.51s-55.22 11.4-55.22 26.51 23.74 26.51 55.22 26.51 55.22-11.41 55.22-26.51z"/><path d="m43.22 218.78h363.55c-.81 11.1-3.93 38.93-15.84 69.41-20.36 52.11-55.36 86.54-104.04 102.35h-123.8c-48.58-15.78-83.54-50.11-103.92-102.05-11.98-30.53-15.13-58.56-15.95-69.71zm339.74 26.07c.32-1.48-.05-3.02-1-4.19s-2.38-1.85-3.89-1.85h-306.15c-1.51 0-2.94.67-3.89 1.85s-1.31 2.71-1 4.19c2.78 13.03 6.8 26.44 11.34 37.74 17.6 43.9 46.91 73.39 87.11 87.62.54.19 1.1.29 1.67.29h115.68c.57 0 1.14-.09 1.68-.29 40.2-14.24 69.52-43.72 87.11-87.62 4.54-11.32 8.56-24.72 11.34-37.74z"/><path d="m284.52 400.53 17.72 39.47h-154.49l17.64-39.29.08-.18z"/><path d="m175.3 12.15c1.57 2.27 1.01 5.39-1.26 6.96-6.11 4.22-8.26 9.33-9.02 12.54-1.3-.63-2.72-1.13-4.24-1.49-.07-.01-.14-.03-.21-.04-.45-.09-2.53-.45-5.37-.29 1.1-5.09 4.25-12.78 13.14-18.94 2.27-1.57 5.39-1.01 6.96 1.26z"/><path d="m115.27 103.36c1.57 2.27 1.01 5.39-1.26 6.96-6.13 4.25-8.28 9.34-9.03 12.55-1.3-.63-2.72-1.13-4.24-1.49-.07-.02-.14-.04-.21-.05-.45-.09-2.53-.45-5.36-.29 1.1-5.09 4.25-12.78 13.14-18.94 2.27-1.57 5.39-1.01 6.96 1.26z"/></g></g></g></svg>