<svg version="1.1" xmlns="http://www.w3.org/2000/svg" style="display: block;" viewBox="0 0 2048 2048" width="512" height="512">
<path transform="translate(0,0)" fill="rgb(0,0,0)" d="M 224.555 335.46 C 281.303 334.111 338.299 334.849 395.069 334.836 C 454.739 334.822 514.659 334.096 574.303 335.81 C 574.527 356.689 577.776 377.859 578.995 398.754 L 592.383 597.931 L 628.391 1123.87 C 644.652 1108.69 664.441 1095.46 682.195 1081.88 L 795.052 996.386 L 994.502 845.511 C 1031.91 817.061 1068.8 787.972 1106.66 760.122 C 1110.96 798.322 1103.6 1100.69 1109.96 1107.16 C 1113.08 1106.59 1204.75 1035.04 1216.26 1026.07 C 1268.76 985.168 1322.43 945.688 1375.45 905.481 C 1439.64 856.811 1503.39 807.661 1569.48 761.6 C 1572.26 804.78 1570.12 848.683 1569.98 891.956 C 1569.55 968.614 1569.68 1045.27 1570.35 1121.93 C 1613.67 1088.17 1657.45 1055 1701.69 1022.45 L 1867.33 898.617 C 1925.42 855.485 1982.07 810.406 2040.51 767.72 C 2039.03 784.963 2039.98 802.69 2040.03 819.993 L 2039.98 904.346 L 2040.33 1199.5 L 2040.2 1712.35 L 2040.07 1856.18 C 2039.99 1885.26 2041.79 1916.99 2037.17 1945.66 C 2033.63 1967.66 2023.31 1986.99 2007.88 2002.96 C 1985.09 2026.52 1954.25 2035.48 1922.44 2035.81 L 1457.5 2036.04 L 710.256 2036.36 L 299.398 2036.28 L 174.504 2036.34 C 151.219 2036.37 126.677 2037.8 103.526 2035.28 C 78.8619 2032.6 55.418 2020.44 37.8923 2003.07 C 22.0779 1987.4 11.9937 1968.39 8.28139 1946.38 C 3.6956 1919.2 5.81304 1889.85 5.74763 1862.3 L 5.69756 1721.47 L 5.6013 1250.97 C 5.62066 1216.23 11.7317 1186.59 37.2428 1161.39 C 67.3846 1131.62 103.421 1133.79 142.588 1134.03 C 146.557 1069.39 152.787 1004.76 157.599 940.156 L 182.646 594.248 C 187.29 532.6 190.308 470.786 195.075 409.142 C 196.945 384.958 197.532 360.169 201.316 336.224 L 224.555 335.46 z M 904.51 1674.04 C 918.172 1674.2 932.217 1675.52 942.785 1665.03 C 947.371 1660.48 948.326 1655.39 949.173 1649.16 C 951.871 1629.3 949.926 1607.17 949.774 1587.06 L 949.576 1494.87 C 949.409 1481.03 949.732 1468.29 938.827 1458.15 C 934.615 1454.23 928.594 1453.16 923.051 1452.44 C 905.53 1450.15 886.459 1451.44 868.71 1451.33 C 832.311 1451 795.91 1451.04 759.512 1451.46 C 747.647 1451.65 731.062 1449.86 722.019 1459.03 C 718.259 1462.84 715.454 1468.73 714.609 1474 C 711.07 1496.07 713.491 1536.33 713.639 1560.03 C 713.809 1587.05 712.468 1614.28 713.592 1641.27 C 713.995 1650.92 714.146 1660.25 721.715 1667.34 C 725.155 1670.56 728.943 1672.59 733.591 1673.42 C 751.646 1676.64 771.636 1674.24 789.955 1674.17 L 904.51 1674.04 z M 1664.98 1674.29 C 1679.22 1674.52 1694.76 1676.76 1706.03 1666.1 C 1716.34 1656.35 1715.89 1645.25 1715.95 1632.09 L 1716.04 1527.71 C 1716.05 1511.69 1718.04 1490.64 1715.04 1475.17 C 1713.88 1469.24 1710.47 1463.18 1706.14 1458.99 C 1701.54 1454.54 1695.88 1453.31 1689.7 1452.45 C 1671.81 1449.97 1651.86 1451.43 1633.74 1451.39 C 1600.81 1451.2 1567.89 1451.22 1534.97 1451.46 C 1520.49 1451.78 1501.75 1449.83 1490.94 1461.38 C 1486.69 1465.91 1485.36 1475.76 1484.72 1481.85 C 1482.2 1505.51 1484.17 1530.74 1484.2 1554.62 C 1484.24 1583.77 1482.67 1613.76 1484.54 1642.81 C 1485.16 1652.43 1486.44 1659.89 1493.94 1666.71 C 1498.82 1671.15 1503.41 1672.99 1509.86 1674.05 C 1526.03 1676.7 1544.18 1674.32 1560.6 1674.25 L 1664.98 1674.29 z M 524.25 1675.2 C 535.626 1675.3 546.015 1674.99 554.635 1666.42 C 558.077 1662.99 560.411 1659.7 561.435 1654.9 C 566.407 1631.55 563.865 1598.25 563.877 1573.96 C 563.892 1545.01 564.822 1515.91 564.274 1486.98 C 564.07 1476.21 563.017 1465.98 554.443 1458.27 C 549.862 1454.15 543.071 1453.04 537.124 1452.31 C 513.958 1449.5 488.734 1451.28 465.352 1451.25 C 434.557 1451.22 403.182 1450 372.447 1451.54 C 362.624 1451.72 350.099 1450.55 342.485 1457.95 C 338.783 1461.56 335.457 1467.46 334.41 1472.54 C 331.114 1488.54 333.163 1516.79 333.203 1534.04 C 333.287 1570.36 332.757 1606.84 333.674 1643.14 C 333.897 1651.97 335.178 1659.66 341.717 1666.16 C 346.027 1670.45 350.335 1672.61 356.225 1673.71 C 374.121 1677.07 394.453 1675.19 412.632 1675.06 C 449.762 1674.8 487.152 1673.67 524.25 1675.2 z M 1284.44 1674.85 C 1299.15 1675.13 1311.86 1676.36 1323.34 1665.2 C 1331.5 1657.26 1330.48 1639.63 1330.49 1629.02 C 1330.34 1602.44 1330.52 1575.86 1331.05 1549.29 C 1331.43 1527.31 1334.04 1491.98 1329.36 1471.41 C 1328.29 1466.72 1325.65 1462.31 1322.27 1458.94 C 1318.04 1454.72 1312.77 1453.59 1307 1452.74 C 1287.67 1449.87 1266.4 1451.38 1246.81 1451.36 C 1213.87 1451.33 1180.89 1451.01 1147.95 1451.47 C 1136.09 1451.59 1118.36 1449.42 1109.42 1458.39 C 1105.35 1462.49 1102.17 1468.55 1101.28 1474.28 C 1098.57 1491.79 1100.2 1511.99 1100.18 1529.82 C 1100.15 1566.34 1099.89 1603.1 1101.1 1639.6 C 1101.44 1649.65 1101.49 1659.61 1109.58 1666.78 C 1113.46 1670.21 1117.19 1672.42 1122.28 1673.34 C 1141.11 1676.75 1163.07 1674.48 1182.19 1674.41 C 1216.28 1674.39 1250.36 1674.53 1284.44 1674.85 z"/>
<path transform="translate(0,0)" fill="rgb(0,0,0)" d="M 225.797 12.4239 C 265.243 11.4586 304.793 11.9729 344.252 11.9589 L 548.508 12.1076 C 548.259 29.1006 551.188 46.9078 552.368 63.9233 L 562.769 203.672 L 541.75 203.793 L 209.125 203.733 C 212.617 178.346 221.992 19.9209 225.797 12.4239 z"/>
</svg>